<svg width="205" height="1082" viewBox="0 0 205 1082" fill="none" xmlns="http://www.w3.org/2000/svg">
<path d="M32.0127 253.044C28.6432 247.05 18.8898 245.974 18.5123 238.259C18.2997 233.94 19.1305 229.07 22.728 224.284C24.11 222.444 25.7937 220.715 27.254 218.871C28.9712 216.704 30.1233 215.877 32.4509 214.016C35.0131 211.97 37.1771 210.593 40.1715 208.828C42.724 207.325 44.9552 206.916 47.4768 205.571C50.1561 204.14 57.1331 201.017 58.5372 201.396L59.679 201.575C64.0125 200.615 73.3222 201.054 75.1396 201.104C81.3991 201.273 87.3524 196.246 93.6193 194.681C95.864 194.12 96.594 194.053 98.3205 194.809C99.2161 195.201 100.794 195.704 101.457 196.237C103.29 197.708 105.309 198.944 107.187 200.198C109.256 201.585 111.169 203.47 111.641 205.932C111.749 206.503 111.375 207.259 111.617 208.014C111.926 208.47 112.206 208.942 112.469 209.426C113.022 210.36 113.566 211.301 114.098 212.249C114.901 213.67 115.717 214.277 117.028 215.261C118.215 216.155 118.387 217.599 119.574 218.493C121.636 220.046 122.411 222.337 124.298 224.023C124.996 224.648 126.7 225.469 127.785 226.005C128.738 226.473 129.529 226.803 130.454 227.238C132.363 228.139 134.849 229.931 136.01 231.583C136.785 232.69 137.313 233.972 138.015 235.125C138.666 236.196 138.303 236.919 138.438 237.917C138.766 240.385 139.654 242.59 138.3 245.566C136.596 249.318 134.073 255.044 129.73 257.827C127.329 259.365 124.584 259.475 122.163 260.035C121.271 260.24 120.432 260.39 119.456 260.659C118.644 260.882 117.296 261.454 116.547 261.656C112.102 262.855 107.952 265.65 103.533 268.2C95.4125 272.888 84.0157 281.374 75.6999 280.318C67.4929 279.277 60.5474 277.556 50.7453 279.597C46.8784 280.402 42.6896 282.018 39.936 280.681C36.8702 279.192 36.1385 275.718 35.8623 272.452C35.5738 269.03 38.3128 264.387 36.9275 261.491C35.5272 258.561 33.6042 255.873 32.0127 253.044Z" fill="#231F20"/>
<path d="M270.46 246.615C272.611 249.465 277.516 249.764 280.066 251.816C282.326 253.626 284.297 257.782 285.958 260.725C289.277 266.612 292.85 277.538 292.772 285.673C292.678 295.22 288.776 307.566 286.828 317.247C285.495 323.871 283.783 329.786 284.336 336.232C284.745 340.963 284.634 348.458 285.576 352.629C287.368 360.541 289.64 368.659 291.692 376.518C294.168 386.007 298.01 394.08 299.872 403.973C301.366 411.909 304.915 419.008 304.359 427.148C302.978 447.297 295.383 465.638 283.302 477.261C279.69 480.742 275.726 482.89 271.739 484.726C268.543 486.206 265.1 485.983 261.58 487.494C254.993 490.322 248.129 493.489 241.536 496.605C228.81 502.624 219.419 519.73 213.244 536.221C210.888 542.514 209.46 547.647 208.105 554.67C206.921 560.783 218.627 561.578 215.287 566.326C210.931 572.519 223.321 574.558 226.932 587.03C232.219 593.704 241.386 602.586 233.968 607.827C227.004 609.486 220.739 600.065 187.407 593.358C178.895 591.646 177.49 604.623 151.215 600.867C140.431 598.697 134.665 581.726 120.935 590.083C115.069 592.532 110.358 591.173 104.45 597.133C97.7836 603.846 96.2378 613.029 94.1182 623.577C93.165 628.315 91.1459 634.449 91.3656 639.1C91.4881 641.696 92.2646 643.715 93.2769 645.517C92.0938 651.916 93.2145 658.932 93.5 665.546C93.5 665.774 93.0964 666.49 93 666.546C87.9235 669.313 84.5232 671.948 79.8519 676.424C75.7105 680.394 71.6161 682.331 67.4191 685.678C64.1852 688.261 62.3903 691.345 58.5637 691.691C50.2335 692.448 44.3335 687.141 39.758 678.648C35.8418 671.378 33.6812 662.654 33.1161 653.105C32.8141 647.964 32.7765 641.672 33.2008 636.358C33.7072 629.995 36.5672 626.228 38.3542 620.702C40.259 614.822 40.2555 607.869 42.0054 601.887C43.4837 596.831 45.3892 594.576 46.4697 588.932C48.3658 579.031 49.598 567.956 53.9914 559.241C55.6932 555.871 56.0159 553.564 57 549.546C57.5284 547.37 56.6629 545.046 57 543.046C57.3372 541.046 57.1629 539.044 57.5 536.546C58.1225 532.546 58.6071 528.567 58.2037 523.821C57.8244 519.378 58.4174 515.448 58.1225 511.185C57.9054 508.046 57.0355 506.18 57 503.546C56.9625 500.896 57.1692 499.734 57.2731 497.103C57.3509 495.025 56.7302 493.759 57.0467 490.945C57.3366 488.386 58.1904 485.411 58.7163 482.865C60.9955 471.837 61.5017 462.638 58.8494 452.825C57.9498 449.481 55.61 447.361 55.6351 443.431C55.6524 441.19 56.7053 438.18 56.8571 435.802C56.9745 434.005 56.3517 432.177 56.6411 429.634C57.9249 418.288 61.4733 408.086 65.1665 398.501C65.942 396.488 66.9379 395.698 67.7561 392.913C68.4794 390.437 68.8288 387.377 69.3413 384.817C70.4091 379.469 71.4812 374.113 72.5693 368.773C73.8336 362.571 75.1328 357.983 74.0451 352.382C73.2808 348.46 72.1734 344.785 71.4113 340.621C70.0958 333.438 71.4878 319.4 76.0088 313.052C81.0353 305.992 88.2583 299.063 94.3101 294.449C100.306 289.883 106.417 289.652 112.69 287.009C119.978 283.944 126.501 283.658 133.634 280.177C138.511 277.789 145.193 275.891 149.818 272.37C155.421 268.107 161.463 264.275 167.007 259.064C173.523 252.933 174.5 248.446 180.5 243.046C185.5 238.546 197.5 233.621 201 230.546C206 224.621 211.028 221.766 232.5 224.046C253.972 226.326 224.508 201.987 236.069 210.434C247.63 218.88 261.257 222.132 261.257 222.132C266.451 224.197 264.461 232.072 265.508 234.972C266.719 238.311 268.512 244.046 270.46 246.615Z" fill="#231F20"/>
<path d="M167.364 1032.42C155.783 1027.13 146.762 1016.72 133.557 1015.19C129.911 1014.76 127.22 1015.44 123.657 1015.59C122.168 1015.65 119.971 1014.87 118.388 1014.82C116.274 1014.75 115.87 1015.84 113.499 1015.2C102.933 1012.38 96.8154 1002.78 92.1303 994.583C88.2575 987.812 85.3456 980.482 77.6577 977.44C75.3404 976.525 73.1062 976.706 70.1557 974.932C68.1046 973.692 65.9969 972.541 63.9504 971.307C59.8104 968.813 55.9112 969.672 52.378 967.153C50.3206 965.687 47.732 960.697 46.384 958.538C44.2651 955.145 44.0738 953.038 44.1526 949.261C44.2937 942.722 42.6052 932.068 47.8206 927.347C53.2339 922.445 63.2489 923.037 67.89 917.205C70.3894 914.059 74.4566 908.169 75.5286 904.315C76.333 901.426 75.7559 897.372 76.2561 894.501C77.6117 886.65 80.0961 876.774 88.6095 873.321C95.8905 870.366 104.098 872.851 110.638 869.236C116.904 865.771 119.988 858.601 125.983 854.862C131.109 851.661 134.514 853.469 140.966 854.439C146.83 855.325 146.938 855.806 151.463 860.04C154.948 863.309 157.556 864.679 160.389 868.287C163.383 872.105 164.272 874.439 166.28 878.552C171.087 888.403 181.075 885.884 188.421 891.958C190.498 893.676 191.354 895.917 193.453 897.618C195.256 899.075 198.253 899.511 199.878 901.141C202.126 903.404 202.554 907.263 203.504 910.144C205.955 917.592 207.335 924.93 206.672 932.18C206.105 938.392 204.381 945.083 205.441 951.841C206.118 956.183 209.838 958.313 211.446 961.998C212.892 965.315 212.712 968.277 211.308 971.736C206.388 983.855 200.91 991.043 205.638 1005.13C208.764 1014.44 209.996 1025.16 200.051 1029.61C192.605 1032.94 175.388 1036.08 167.364 1032.42Z" fill="#231F20"/>
<path d="M146.534 653.923C143.743 654.283 140.866 653.057 138.185 654.544C137.444 654.954 137.008 655.493 136.347 656.029C136.071 656.253 135.566 656.375 135.259 656.584C134.85 656.865 134.894 657.182 134.373 657.363C132.049 658.17 129.409 656.407 127.605 655.105C126.114 654.028 125.001 654.046 123.501 653.811C122.629 653.811 122.399 653.818 121.64 653.808C121.112 653.799 120.583 653.819 120.056 653.811C118.991 653.795 118.345 654.548 117.393 654.441C116.838 654.379 115.789 653.548 115.292 653.221C114.511 652.706 114.24 652.229 113.833 651.314C113.131 649.729 111.622 647.417 112.087 645.555C112.57 643.622 112.686 641.883 112.919 639.837C113.043 638.733 113.45 637.17 113.225 636.097C113.055 635.293 113.45 634.362 113.225 633.605C112.607 631.536 112.585 628.923 113.819 626.902C114.874 625.173 116.712 624.616 117.552 622.833C118.357 621.124 118.144 618.976 118.867 617.24C119.485 615.754 120.334 615.709 121.669 615.036C122.883 614.425 122.957 614.525 124.29 614.903C125.317 615.196 125.966 615.158 126.906 615.624C127.902 616.118 130.436 614.334 131.277 615.036C134.031 614.597 132.802 616.932 134.876 617.355C135.463 617.475 135.875 617.891 136.464 618.003C136.969 618.099 137.588 617.783 138.079 617.945C138.758 618.171 139.27 619.034 139.772 619.59C141.069 621.029 142.149 622.591 142.831 624.419C143.416 625.985 144.09 627.151 145.045 628.619C145.658 629.563 146.347 630.229 147.064 630.885C147.709 631.476 148.005 632.21 148.124 633.235C148.54 636.825 148.299 639.314 150.769 642.022C152.401 643.81 153.831 646.203 152.436 648.664C151.392 650.505 148.469 653.674 146.534 653.923Z" fill="#231F20"/>
<path d="M159.284 1043.7C157.253 1042.91 154.319 1040.97 151.497 1042.21L144.674 1043.18C143.7 1043.18 142.724 1045.13 141.749 1047.08C140.37 1049.84 139.8 1050.01 139.8 1052.93C139.8 1054.88 141.426 1055.93 142.734 1057.37C144.043 1058.82 149.933 1065.32 152.755 1064.08C155.577 1062.84 157.812 1059.5 158.535 1058.84C159.113 1058.32 160.402 1053.64 160.975 1051.37C162.557 1047.31 161.902 1046.59 159.284 1043.7Z" fill="black"/>
<path d="M123.946 1039.03C123.926 1040.24 125.142 1040.74 126.146 1041.75L127.362 1042.25C127.632 1042.36 128.374 1042.78 129.176 1043.6C130.18 1044.62 129.987 1043.93 130.798 1044.26C131.609 1044.59 132.227 1044.23 132.653 1043.19C133.079 1042.14 134.995 1037.43 133.992 1036.42C132.988 1035.4 131.154 1035.26 130.748 1035.09C130.424 1034.96 128.153 1035.66 127.059 1036.03C125.011 1036.42 124.798 1036.94 123.946 1039.03Z" fill="black"/>
<path d="M144.891 1067.93C144.877 1066.59 143.1 1065.56 141.613 1064.03L139.836 1062.99C139.442 1062.76 138.354 1061.99 137.165 1060.77C135.677 1059.23 135.98 1060.07 134.796 1059.38C133.611 1058.69 132.73 1058.84 132.152 1059.83C131.574 1060.82 128.972 1065.28 130.459 1066.82C131.947 1068.35 134.604 1069.23 135.197 1069.58C135.67 1069.86 138.928 1069.99 140.498 1070.02C143.445 1070.41 143.734 1069.91 144.891 1067.93Z" fill="black"/>
<path d="M188.106 41.279C187.047 44.4584 190.226 47.6379 192.346 51.8771L192.345 56.4745C193.052 57.181 194.186 60.0831 195.882 63.4745C198.001 67.7138 200.261 69.3549 202.381 71.4745C204.501 73.5942 213.762 70.5942 215.881 68.4745C218.001 66.3549 222.02 53.9968 219.901 49.7575C217.781 45.5182 212.482 42.3388 211.422 41.279C210.574 40.4311 205.914 34.1811 202.381 33.4745C196.023 31.354 192.347 37.0388 188.106 41.279Z" fill="black"/>
<path d="M195.51 6.61862C195.565 7.72092 196.863 8.24932 197.972 9.24081L199.27 9.76921C199.558 9.88663 200.357 10.3198 201.244 11.113C202.353 12.1045 202.109 11.4652 202.974 11.8175C203.84 12.1698 204.461 11.8828 204.838 10.9567C205.215 10.0305 207.609 4.45369 206.5 3.4622C205.391 2.47072 202.775 3.63834 202.342 3.4622C201.996 3.32129 199.677 3.81641 198.56 4.08159C196.453 4.30281 196.264 4.76589 195.51 6.61862Z" fill="black"/>
<path d="M71.2428 1020.87C73.2995 1022.98 74.2956 1024.44 77.7387 1024.45L82.4374 1029.07C83.8554 1031.39 88.0442 1030.89 91.7392 1027.13C94.1529 1024.67 94.4948 1022.45 95.8805 1021.04C97.3553 1019.54 94.1286 1015.49 93.0377 1012.96C91.9469 1010.43 87.0379 999.055 83.5947 999.041C80.1516 999.027 76.8335 1001.96 75.8676 1002.37C75.0949 1002.71 72.4927 1007.83 71.2882 1010.35C68.5151 1014.54 69.0605 1015.81 71.2428 1020.87Z" fill="black"/>
<path d="M114.129 854.488C114.031 852.295 112.009 851.712 110.275 850.129L108.253 849.545C107.804 849.416 106.558 848.84 105.171 847.573C103.438 845.991 103.823 847.184 102.475 846.795C101.127 846.406 100.165 847.211 99.588 849.21C99.0112 851.208 96.4159 860.202 98.1496 861.785C99.8834 863.368 102.868 863.147 103.542 863.341C104.081 863.497 107.681 861.649 109.414 860.705C112.686 859.486 112.975 858.486 114.129 854.488Z" fill="black"/>
<path d="M115.023 832.358C114.964 831.022 115.812 830.667 114.756 829.702L113.524 829.347C113.25 829.268 112.492 828.917 111.647 828.145C110.59 827.181 110.825 827.908 110.004 827.671C109.183 827.434 108.596 827.925 108.245 829.142C107.894 830.36 107.189 833.584 108.245 834.548C109.301 835.512 108.915 836.628 110.589 836.628C111.629 836.628 113.176 836.721 114.231 836.146C116.225 835.403 114.321 834.794 115.023 832.358Z" fill="black"/>
<path d="M220.49 850.835C216.513 852.959 210.622 856.552 205.264 854.174C199.662 851.69 196.877 844.147 193.484 839.123C190.394 834.543 186.69 831.363 182.702 827.886C176.765 822.711 169.999 833.046 160.499 827.046C156.781 827.042 151.999 815.546 148.999 812.546C145.999 809.546 137.099 805.518 133.999 803.046C128.499 800.046 121.351 803.374 120.317 795.055C119.32 787.011 120.469 778.84 119.126 770.889C118.437 766.863 117.069 761.532 115.01 757.58C113.801 755.253 111.303 753.397 110.228 751.027C109.212 748.79 110.209 747.838 109.201 745.596C108.163 743.268 105.694 741.217 104.433 738.96C102.882 736.187 103.285 735.62 102.406 733.246C100.313 727.573 99.6136 724.25 99.8308 718.784C100.132 711.086 104.89 704.899 111.158 701.981C114.767 700.301 117.553 700.959 121.044 698.454C124.898 695.688 128.861 693.062 132.764 690.365C139.693 685.577 146.044 680.594 154.033 678.192C157.888 677.034 159.402 675.096 164.135 677.498C167.163 679.031 172.542 682.087 175.125 684.449C181.681 690.449 187.415 700.653 189.323 708.661C189.948 711.27 192.254 717.366 192.185 719.694C192.02 725.339 187.887 729.998 184.114 732.454C180.148 735.033 175.985 736.112 178.656 742.633C180.266 746.56 182.876 753.829 186.158 757.068C189.03 759.902 193.81 762.539 197.193 764.709C200.676 766.937 204.467 769.989 208.098 771.72C211.858 773.512 215.854 773.747 219.18 776.839C223.251 780.624 226.59 786.639 229.796 791.387C236.228 800.899 250.034 800.817 254.787 813.077C256.994 818.774 254.064 820.774 252.378 824.191C251.248 826.496 250.208 827.776 248.959 829.876C247.979 831.518 246.756 834.088 245.619 835.595C242.401 839.827 235.812 838.756 231.709 841.767C227.79 844.645 224.841 848.511 220.49 850.835Z" fill="#231F20"/>
<path d="M223 57.0459H238H249.5C257.667 96.0459 273.3 178.246 270.5 195.046C267 216.046 238 206.046 238 195.046C238 184.046 210 206.046 160.5 206.046H145.5L136 200.546L131 199.046L126 195.046L124.501 187.046C124.5 183.546 121.476 176.363 126.5 170.546C130.362 166.074 142.893 162.957 145.5 157.046C153 140.046 149 128.046 158 117.546C168.5 111.546 206 85.5459 223 76.0459C236.6 68.4459 228.667 60.2126 223 57.0459Z" fill="#231F20"/>
<path d="M180.219 1054.73C180.128 1060.13 185.551 1062.33 190.025 1066.87L195.448 1069.08C196.653 1069.57 199.958 1071.46 203.537 1075.09C208.011 1079.63 207.153 1076.57 210.768 1078.04C214.383 1079.51 217.14 1077.91 219.039 1073.25C220.938 1068.59 229.482 1047.61 225.008 1043.07C220.534 1038.53 212.354 1037.91 210.546 1037.18C209.1 1036.59 198.976 1039.72 194.095 1041.35C184.967 1043.07 184.017 1045.4 180.219 1054.73Z" fill="black"/>
<path d="M163.29 637.03C163.247 639.557 163.694 640.874 165.788 642.999L168.326 644.033C168.89 644.262 170.438 645.147 172.113 646.847C174.207 648.971 175.396 646.846 177.533 645.168C178.97 644.04 178.679 643.282 179.567 641.1C180.456 638.917 181.663 635.086 179.569 632.961C177.475 630.836 176.24 629.444 175.394 629.099C174.717 628.823 171.682 632.195 169.397 632.961C165.124 633.765 165.068 632.664 163.29 637.03Z" fill="black"/>
<path d="M185.362 631.331C185.86 631.769 186.325 632.236 187.032 632.189L187.582 631.871C187.705 631.8 187.882 631.368 188.448 631.331C189.155 631.284 189.023 631.4 189.39 631.188C189.756 630.976 189.782 630.598 189.468 630.054C189.153 629.51 189.155 628.198 188.448 628.244C187.741 628.291 185.936 627.646 185.361 628.244C185.004 628.616 185.066 629.215 184.909 629.789C184.49 630.757 184.733 630.244 185.362 631.331Z" fill="black"/>
<path d="M146.975 233.49C146.932 236.017 149.471 237.05 151.565 239.175L154.103 240.209C154.667 240.439 156.214 241.323 157.89 243.023C159.984 245.148 159.582 243.712 161.274 244.401C162.967 245.09 164.257 244.343 165.146 242.161C166.035 239.978 170.034 230.157 167.94 228.032C165.846 225.907 162.017 225.62 161.171 225.275C160.494 225 155.755 226.463 153.47 227.229C149.197 228.032 148.753 229.124 146.975 233.49Z" fill="black"/>
</svg>
