<svg width="206" height="1090" viewBox="0 0 206 1090" fill="none" xmlns="http://www.w3.org/2000/svg">
<path d="M-155.059 350.432C-152.184 352.36 -153.816 351.026 -152.963 354.392C-151.942 358.439 -151.314 362.199 -150.754 366.356C-150.379 369.15 -148.989 369.702 -148.313 372.143C-147.794 374.02 -148.76 376.315 -148.484 378.234C-148.054 381.173 -147.016 384.829 -145.719 387.646C-142.95 393.69 -132.927 401.664 -125.792 401.98C-120.34 402.216 -117.633 399.903 -112.188 399.966C-107.665 400.022 -103.142 399.897 -98.6184 399.954C-93.8424 400.011 -91.6985 398.441 -87.3391 397.933C-82.9967 397.435 -78.0911 397.981 -73.6975 397.981C-68.57 397.981 -62.7938 397.298 -57.8438 398.423C-53.0781 399.506 -49.456 400.246 -44.2568 400.002C-36.207 399.629 -29.4442 396.504 -23.255 392.583C-11.9826 385.435 -4.06938 373.599 9.58928 369.773C13.4742 368.69 17.0792 366.735 21.3635 366.258C23.5586 366.016 25.3595 365.451 27.5 364.997C29.5551 364.561 30.5706 364.655 32.6223 364.219C36.7632 363.351 39.7737 363.142 44 362.351C45.5294 362.068 48.6467 362.551 50.8043 362.303C52.9413 362.059 55.4778 362.351 57.6489 362.351C67.7777 362.351 76.203 364.309 84.7581 368.785C92.4425 372.802 95.5013 377.971 105.207 378.18C120.938 378.511 135.812 369.925 144.268 358.445C147.316 354.308 150.252 351.572 155.089 348.996C159.251 346.776 161.193 347.218 165.836 346.063C169.004 345.272 172.302 342.404 175.402 341.013C179.249 339.291 182.734 339.303 186.787 338.202C192.553 336.632 193.768 330.825 196.342 326.67C198.428 323.301 200.995 320.636 202.064 316.813C203.122 313.029 202.156 309.143 203.077 305.38C203.385 304.118 204.576 302.814 204.88 301.035C205.221 299.053 204.771 297.337 204.334 295.484C203.979 293.989 202.743 290.999 202.128 289.098C201.534 287.25 199.718 284.735 198.612 283.063C196.68 280.13 195.543 277.724 194.075 274.758C192.361 271.317 191.788 268.986 190.754 265.342C189.784 261.919 188.053 258.019 187.217 255.011C183.328 241.014 176.627 230.53 161.811 223.777C153.717 220.088 147.139 216.501 137.068 218.769C135.579 219.252 134.074 219.667 132.425 219.864C119.217 221.437 96.9385 211.72 90.4625 201.579C84.8058 192.725 86.8541 191.801 90.4625 182.982C90.6298 182.571 91.9667 180.288 90.854 175.636C89.5021 174.651 88.5986 172.706 87.134 171.813C78.8965 166.791 70.1913 162.049 65.0125 154.534C60.9398 148.622 59.3456 141.743 55.9967 136.127C52.9959 131.092 47.4758 125.556 41.2763 123.303C31.622 119.79 24.2619 120.829 14.611 122.864C5.6873 124.75 -1.39294 128.051 -9.73972 131.217C-17.373 134.106 -25.2794 132.28 -32.9502 130.343C-37.6715 129.152 -42.6523 126.01 -47.0356 125.234C-51.2654 124.485 -55.7238 124.822 -60.1208 124.795C-62.1213 124.783 -65.1084 124.288 -67.0303 124.694C-69.0855 125.126 -69.2766 126.442 -71.3249 126.875C-75.2132 127.696 -80.9758 126.83 -85.0211 126.78C-93.3543 126.678 -101.797 131.34 -107.737 136.616C-109.638 138.305 -110.372 139.368 -112.195 140.678C-113.383 141.531 -114.8 141.994 -116.104 143.059C-119.545 145.864 -121.979 150.156 -125.738 152.657C-133.822 158.044 -146.576 152.875 -155.23 152.463C-163.546 152.063 -171.213 152.803 -179 154.274V338.787C-173.651 342.24 -167.943 345.973 -162.132 348.486C-160.282 349.289 -156.643 349.369 -155.059 350.432Z" fill="#231F20"/>
<path d="M17.8227 421.655C7.81149 421.769 -0.645636 410.212 -10.6497 415.37C-16.2508 418.256 -21.7876 422.864 -25.2051 430.914C-26.5195 434.007 -27.4745 437.4 -28.7371 440.595C-30.2197 444.351 -30.4235 446.413 -31.0763 450.718C-31.7916 455.455 -31.9526 459.2 -31.9991 464.278C-32.0366 468.607 -30.9278 471.729 -30.7884 475.902C-30.6435 480.339 -32.3549 495.926 -27.2581 495.281L-26.947 494.264C-26.6394 500.395 -17.6726 511.91 -16.2866 514.174C-11.517 521.972 -13.5236 533.178 -10.9358 542.252C-10.0095 545.503 -9.56237 546.476 -7.35196 548.108C-6.20563 548.955 -4.42264 550.585 -3.26736 551.035C-0.0787277 552.279 2.94896 553.932 5.89795 555.392C9.15276 556.999 12.9226 558.041 16.3706 556.841C17.1699 556.56 17.8513 555.535 18.9798 555.29C19.7792 555.348 20.5786 555.357 21.3797 555.337C22.9606 555.354 24.5433 555.354 26.126 555.337C28.5028 555.313 29.8619 555.903 32.0562 556.844C34.0484 557.694 35.9942 556.855 37.9864 557.705C41.4451 559.18 44.8984 558.488 48.3982 559.645C49.6948 560.071 51.9713 561.628 53.436 562.609C54.72 563.473 55.7126 564.233 56.934 565.086C59.4592 566.844 63.5295 568.681 66.457 568.944C68.417 569.116 70.4182 568.847 72.3836 568.894C74.2077 568.935 74.8551 567.948 76.2125 567.39C79.5639 566.003 82.9903 565.515 85.7587 561.628C89.2496 556.73 94.6343 549.355 94.983 541.826C95.1744 537.664 93.3145 534.11 92.2594 530.637C91.8677 529.358 91.4475 528.187 91.0755 526.756C90.7661 525.564 90.505 523.441 90.2153 522.346C88.4913 515.844 88.9956 508.552 88.9956 501.095C88.9956 487.395 91.4028 466.773 84.0169 457.021C76.7311 447.395 69.5044 439.862 64.9441 425.966C63.145 420.484 62.1328 414.003 58.4434 411.495C54.3337 408.702 49.4193 410.315 45.1005 412.35C40.5741 414.485 36.7131 421.343 32.0526 421.705C27.3385 422.073 22.5493 421.603 17.8227 421.655Z" fill="#231F20"/>
<path d="M103.526 900.709C106.197 898.638 111.064 899.228 113.969 897.908C116.541 896.747 119.294 893.526 121.502 891.289C125.917 886.817 131.575 878.069 133.103 871.083C134.895 862.886 133.504 851.632 133.504 843C133.504 837.092 132.993 831.728 134.806 826.299C136.141 822.315 137.51 815.872 139.256 812.46C142.573 805.989 146.402 799.423 149.964 793.042C154.263 785.337 159.622 779.081 163.399 770.923C166.429 764.379 171.309 758.907 172.369 751.835C174.989 734.329 171.161 717.301 161.61 705.256C158.756 701.65 155.293 699.126 151.747 696.865C148.906 695.045 145.487 694.643 142.334 692.741C136.434 689.181 130.33 685.284 124.481 681.476C113.192 674.124 107.359 657.844 104.559 642.646C103.491 636.847 103.103 632.202 103.16 625.949C103.205 620.506 105.5 618.833 109 614.737C114.5 610.091 117 608.618 128 601.462C134.5 596.654 145.239 590.623 139 584.852C132.5 582.23 124.5 589.223 90.4997 589.223C81.8172 589.223 82.9997 577.859 56.4997 576.548C45.4997 576.548 36.4997 590.098 24.6873 580.568C19.4196 577.458 14.5339 577.81 9.91727 571.684C4.70605 564.781 5.00198 556.644 5.00468 547.239C5.00468 543.014 4.23524 537.409 5.36787 533.461C6.00011 531.257 7.15965 529.661 8.50751 528.291C8.60975 522.603 9.41538 522.884 11 517.264C10.9166 517.203 11.5 514.493 11.5 510.708C9.26364 503.128 5.13919 504.13 1.44264 499.488C-1.83421 495.372 -5.46619 493.006 -8.9206 489.414C-11.5814 486.642 -12.7328 483.69 -16.4159 482.734C-24.4332 480.648 -31.264 484.179 -37.4249 490.669C-42.698 496.224 -46.5372 503.328 -48.9746 511.414C-50.2848 515.768 -51.5627 521.154 -52.195 525.781C-52.9537 531.322 -50.8928 535.043 -50.231 540.087C-49.5234 545.455 -50.8982 551.413 -50.3628 556.842C-49.9109 561.43 -48.4877 563.691 -48.5415 568.714C-48.6356 577.526 -49.6122 587.23 -47.0241 595.457C-46.0206 598.639 -44.9364 601.019 -44.7642 604.632C-44.6754 606.588 -45.0575 615.749 -47.2393 616.123C-47.9604 616.249 -48.4204 615.868 -48.6222 614.965C-48.4661 619.797 -48.5495 622.541 -49.8813 626.539C-51.1296 630.282 -51.3233 633.751 -52.4532 637.354C-53.0236 639.187 -54.7696 640.338 -55.3239 642.589C-55.8834 644.854 -55.6467 647.004 -56.0637 649.276C-56.3973 651.07 -57.2555 652.048 -57.5004 654.515C-57.721 656.758 -57.4708 659.455 -57.4573 661.727C-57.3981 671.571 -58.7164 679.542 -63.2523 687.495C-64.7939 690.206 -67.5058 691.619 -68.2564 694.992C-68.6815 696.915 -68.2429 699.676 -68.5631 701.74C-68.8025 703.3 -69.7738 704.76 -69.9917 706.989C-70.971 716.934 -69.5047 726.289 -67.7748 735.141C-67.4116 737 -66.5911 737.849 -66.3382 740.376C-66.1176 742.623 -66.3785 745.305 -66.3812 747.589C-66.3893 752.356 -66.3947 757.131 -66.3812 761.895C-66.3651 767.428 -65.9965 771.584 -68.1676 776.197C-69.6904 779.426 -71.501 782.385 -73.0694 785.822C-75.7759 791.751 -77.1803 804.022 -74.0003 810.242C-70.4652 817.159 -64.7509 824.343 -59.728 829.341C-54.7508 834.288 -48.8051 835.539 -43.1769 838.886C-36.6366 842.769 -30.2982 844.139 -23.992 848.353C-19.682 851.24 -13.505 854.019 -9.66583 857.834C-5.01421 862.454 0.153969 866.78 4.56077 872.201C9.7397 878.58 10.3262 883.879 10.3612 893.08C10.3854 899.239 8.77117 903.927 8.53442 909.773C8.45641 911.743 14.6738 920.105 36.1738 921.854C57.6738 923.602 49.6738 931.033 62.6738 925.788C75.6738 920.542 89.6738 920.105 89.6738 920.105C95.1738 919.231 94.7765 912.139 96.3745 909.834C98.2201 907.181 101.11 902.575 103.526 900.709Z" fill="#231F20"/>
<path d="M-45.0709 76.8196C-38.1944 77.5238 -31.1076 75.1275 -24.5025 78.0325C-22.6782 78.8336 -21.6029 79.8873 -19.9752 80.934C-19.295 81.3718 -18.0526 81.6105 -17.2958 82.0189C-16.2873 82.5674 -16.3974 83.1868 -15.1118 83.5397C-9.38728 85.116 -3.88298 82.3026 0.561745 79.7575C4.23586 77.6536 7.61314 75.0254 12.05 75.7105C13.3868 75.9182 14.3834 76.6154 16.2529 76.5947C17.5543 76.5774 18.8577 76.6172 20.1551 76.6016C22.7795 76.5705 24.3698 78.0411 26.717 77.8318C28.0833 77.7107 30.6663 76.0877 31.891 75.4475C33.8156 74.4423 34.484 73.5097 35.4846 71.7224C37.2145 68.6271 40.9319 64.1095 39.7858 60.4726C38.5965 56.6973 33.7429 54.2282 33.1708 50.2297C32.8641 48.0739 32.5771 44.2051 33.1334 42.1098C33.5502 40.5388 34.9341 38.8017 35.4885 37.3224C37.01 33.2806 38.5591 27.9827 35.52 24.0343C32.9211 20.657 28.3939 19.5687 26.3238 16.0858C24.3403 12.7482 24.8652 8.55068 23.0842 5.15947C21.5626 2.25791 19.471 2.16967 16.1822 0.854707C13.1922 -0.339138 13.0093 -0.143624 9.7264 0.595175C7.19639 1.16788 5.59818 1.09348 3.28048 2.00357C0.829098 2.96729 -0.228516 3.8151 -2.29853 5.18715C-7.25633 8.47455 -11.243 4.55909 -16.3522 5.3844C-17.7971 5.61798 -18.8134 6.43118 -20.2642 6.65091C-21.5085 6.83778 -23.0321 6.22009 -24.241 6.53672C-25.9159 6.97792 -27.176 8.66488 -28.4125 9.75145C-31.607 12.5613 -34.2687 15.6134 -35.9495 19.1846C-37.3904 22.2436 -38.4205 25.8441 -40.7736 28.7128C-42.2833 30.5572 -44.6109 30.533 -46.3762 31.8151C-47.9646 32.9691 -48.6939 34.4035 -48.9868 36.4053C-50.011 43.4196 -49.4193 48.2815 -55.5035 53.5708C-59.5236 57.0641 -63.0464 61.7391 -59.6101 66.5456C-57.0368 70.1427 -49.836 76.3334 -45.0709 76.8196Z" fill="#231F20"/>
<path d="M110.568 470.101C115.13 470.679 119.831 468.711 124.213 471.097C125.423 471.755 126.136 472.621 127.216 473.481C127.667 473.84 127.999 474.162 128.501 474.497C129.17 474.948 132.256 475.365 133.501 475.497C135.681 475.727 138.553 474.088 141.501 471.997C143.938 470.269 145.058 470.369 148.001 470.932C148.888 471.103 150.008 469.933 151.248 469.916C152.112 469.902 152.976 469.935 153.837 469.922C155.578 469.896 156.501 469.916 158.001 469.997C159.501 469.997 160.81 469.5 161.622 468.974C162.899 468.148 163.342 467.382 164.006 465.914C165.153 463.371 166.001 460.321 166.001 456.997C166.001 453.673 165.881 450.782 165.501 447.497C165.298 445.726 164.632 443.218 165.001 441.497C165.277 440.207 164.633 438.712 165.001 437.497C166.01 434.177 166.045 429.985 164.029 426.742C162.305 423.967 159.302 423.073 157.929 420.212C156.613 417.471 156.961 414.023 155.78 411.237C154.771 408.854 153.383 408.781 151.201 407.701C149.218 406.72 149.097 406.881 146.919 407.488C145.24 407.958 144.18 407.897 142.643 408.645C141.017 409.436 139.001 409.293 136.001 409.997C133.871 410.497 133.008 410.744 129.619 411.422C128.661 411.614 127.963 411.241 127.001 411.422C126.176 411.575 125.188 412.108 124.386 412.368C123.275 412.731 122.439 414.117 121.619 415.009C119.5 417.317 117.734 419.824 116.619 422.758C115.663 425.271 114.562 427.141 113.001 429.497C112 431.012 110.873 432.08 109.702 433.133C108.649 434.081 108.165 435.259 107.97 436.903C107.291 442.665 107.684 446.659 103.647 451.004C100.981 453.873 98.6438 457.713 100.923 461.661C102.63 464.616 107.407 469.701 110.568 470.101Z" fill="#231F20"/>
<path d="M85.1358 666.234C89.1131 668.359 95.0036 671.952 100.362 669.573C105.964 667.09 108.749 659.546 112.142 654.523C115.232 649.943 118.936 646.762 122.924 643.285C128.861 638.11 138.705 635.259 145.186 635.239C148.903 635.235 151.65 638.288 155.078 639.102C158.286 639.862 164.31 637.066 167.41 634.593C173.955 629.38 184.275 618.774 185.309 610.454C186.306 602.411 185.157 594.239 186.5 586.289C187.189 582.263 188.557 576.931 190.616 572.979C191.825 570.652 194.323 568.797 195.398 566.426C196.414 564.19 195.416 563.237 196.425 560.995C197.463 558.667 199.932 556.616 201.193 554.359C202.744 551.586 202.34 551.02 203.22 548.646C205.313 542.972 206.012 539.65 205.795 534.183C205.494 526.486 200.736 520.298 194.468 517.381C190.859 515.7 188.073 516.358 184.582 513.853C180.728 511.087 176.765 508.461 172.862 505.765C165.933 500.976 159.582 495.993 151.593 493.592C147.738 492.434 146.224 490.496 141.491 492.897C138.463 494.43 133.084 497.487 130.5 499.848C123.945 505.849 118.211 516.052 116.303 524.06C115.678 526.67 113.372 532.765 113.441 535.094C113.606 540.739 117.738 545.397 121.512 547.854C125.478 550.433 129.641 551.511 126.97 558.032C125.36 561.959 122.75 569.229 119.468 572.467C116.596 575.302 111.816 577.939 108.433 580.109C104.95 582.336 101.159 585.389 97.5279 587.119C93.7681 588.911 89.7714 589.147 86.4456 592.238C82.3753 596.023 79.0357 602.039 75.8295 606.786C69.3983 616.299 55.5917 616.216 50.8385 628.477C48.6324 634.174 51.5619 636.174 53.248 639.59C54.3774 641.896 55.4179 643.175 56.6667 645.276C57.6468 646.918 58.8696 649.488 60.0066 650.995C63.2253 655.226 69.8135 654.155 73.9168 657.166C77.8357 660.045 80.7853 663.91 85.1358 666.234Z" fill="#231F20"/>
<path d="M137.086 652.478C135.867 654.285 133.328 656.719 133.916 659.745L133.362 666.615C133.147 667.565 134.834 668.947 136.52 670.328C138.905 672.281 138.943 672.874 141.796 673.519C143.697 673.949 145.076 672.594 146.774 671.636C148.472 670.678 156.113 666.367 155.526 663.341C154.938 660.315 152.173 657.398 151.694 656.549C151.311 655.87 147.035 653.581 144.945 652.522C141.332 650.083 140.483 650.562 137.086 652.478Z" fill="black"/>
<path d="M26.6829 993.773C26.6665 994.746 27.6448 995.145 28.4517 995.964L29.43 996.362C29.6473 996.45 30.2435 996.791 30.8891 997.446C31.6961 998.265 31.5412 997.712 32.1934 997.977C32.8455 998.243 33.3428 997.955 33.6853 997.114C34.0278 996.273 35.5689 992.488 34.762 991.669C33.955 990.85 32.4795 990.74 32.1534 990.607C31.8925 990.501 30.0664 991.065 29.1859 991.36C27.5393 991.669 27.3681 992.09 26.6829 993.773Z" fill="black"/>
<path d="M-3.62636 1087.36C-3.63442 1087.84 -3.15417 1088.03 -2.75799 1088.44L-2.27774 1088.63C-2.17102 1088.67 -1.87834 1088.84 -1.5614 1089.16C-1.16522 1089.57 -1.24124 1089.29 -0.921072 1089.42C-0.600908 1089.55 -0.356757 1089.41 -0.188619 1089C-0.0204821 1088.59 0.736136 1086.73 0.339957 1086.33C-0.056221 1085.93 -0.780619 1085.87 -0.940701 1085.81C-1.06877 1085.75 -1.9653 1086.03 -2.39755 1086.18C-3.20595 1086.33 -3.29001 1086.53 -3.62636 1087.36Z" fill="black"/>
<path d="M55.048 1024.8C57.4446 1025.39 58.975 1023.19 61.4486 1021.65L62.9789 1019.46C63.319 1018.97 64.4939 1017.69 66.4728 1016.46C68.9464 1014.93 67.493 1015 68.5132 1013.54C69.5335 1012.07 69.1003 1010.68 67.2139 1009.37C65.3274 1008.05 56.8382 1002.13 54.3646 1003.67C51.891 1005.2 50.7937 1008.79 50.2836 1009.52C49.8755 1010.1 50.2484 1014.93 50.4858 1017.27C50.331 1021.51 51.2742 1022.17 55.048 1024.8Z" fill="black"/>
<path d="M34.6419 939.785C31.9481 939.012 29.3447 941.803 25.8284 943.743L23.225 946.535C22.6465 947.155 20.7862 948.783 17.9731 950.335C14.4567 952.275 16.2375 952.196 14.5019 954.057C12.7664 955.918 12.8116 957.7 14.6377 959.403C16.4638 961.106 24.6812 968.77 28.1975 966.83C31.7139 964.89 34.272 960.317 35.1398 959.387C35.834 958.642 37.0439 952.464 37.5621 949.467C39.2079 944.043 38.2949 943.192 34.6419 939.785Z" fill="black"/>
<path d="M-54.0442 1035.15C-42.9384 1033.51 -36.3353 1017.55 -25.2799 1003.42L-18.6768 987.458C-17.2094 983.911 -12.0636 973.991 -3.21927 962.693C7.83619 948.57 1.1828 952.05 5.58486 941.407C9.98691 930.764 7.73557 923.601 -1.16917 919.918C-10.0739 916.234 -50.1453 899.66 -61.2007 913.783C-72.2562 927.906 -76.6079 951.034 -78.809 956.355C-80.5698 960.612 -77.9411 987.873 -76.4067 1000.97C-76.3099 1025.94 -71.8575 1027.78 -54.0442 1035.15Z" fill="black"/>
<path d="M15.393 1068.27C20.5129 1065.13 23.865 1063.81 25.44 1056.97L36.7272 1049.71C41.9679 1047.94 42.8529 1039.39 37.0441 1030.36C33.2497 1024.46 28.9781 1022.78 26.7999 1019.39C24.4815 1015.79 14.9959 1020.38 9.48199 1021.41C3.96809 1022.45 -20.8445 1027.09 -22.4194 1033.92C-23.9944 1040.76 -19.6615 1048.66 -19.2675 1050.77C-18.9523 1052.46 -9.94561 1059.93 -5.48168 1063.45C1.60582 1070.84 4.36276 1070.33 15.393 1068.27Z" fill="black"/>
<path d="M-24.7947 1037.3C-25.8268 1039.54 -26.688 1040.71 -25.5192 1043.81L-27.7076 1048.9C-29.1276 1050.6 -27.2789 1054.28 -22.9198 1056.91C-20.0724 1058.63 -18.1229 1058.53 -16.4883 1059.52C-14.7485 1060.57 -12.5275 1056.91 -10.8215 1055.46C-9.11542 1054.01 -5 1051.11 -5 1045.5C-5 1042.18 -6.5 1038.5 -7.99834 1038.04C-8.79419 1037.79 -13.6427 1036.01 -16.1278 1035.39C-20.5288 1033.67 -21.3818 1034.4 -24.7947 1037.3Z" fill="black"/>
<path d="M193.129 483.439C193.031 481.246 191.009 480.663 189.275 479.08L187.253 478.496C186.804 478.367 185.558 477.791 184.171 476.525C182.438 474.942 182.823 476.136 181.475 475.747C180.127 475.358 179.165 476.162 178.588 478.161C178.011 480.16 175.416 489.153 177.15 490.736C178.883 492.319 181.868 492.098 182.542 492.292C183.081 492.448 186.681 490.6 188.414 489.657C191.686 488.437 191.975 487.438 193.129 483.439Z" fill="black"/>
<path d="M51.7697 100.339C51.7182 103.395 52.2581 104.987 54.7908 107.557L57.861 108.808C58.5432 109.085 60.4142 110.155 62.4404 112.211C64.9731 114.781 66.4108 112.21 68.9957 110.181C70.7341 108.817 70.3816 107.9 71.4564 105.26C72.5313 102.621 73.9913 97.9875 71.4586 95.4175C68.926 92.8475 67.4318 91.1629 66.4084 90.7462C65.5897 90.4128 61.9192 94.4911 59.1559 95.4175C53.988 96.3893 53.9199 95.0581 51.7697 100.339Z" fill="black"/>
<path d="M100.769 197.543C101.371 198.072 101.933 198.637 102.789 198.581L103.454 198.196C103.602 198.11 103.817 197.588 104.501 197.543C105.357 197.486 105.197 197.626 105.64 197.369C106.083 197.113 106.115 196.656 105.734 195.998C105.354 195.341 105.357 193.753 104.501 193.809C103.646 193.865 101.462 193.086 100.768 193.809C100.336 194.259 100.411 194.983 100.221 195.678C99.7143 196.849 100.007 196.227 100.769 197.543Z" fill="black"/>
<path d="M119.389 190.103C119.337 193.159 122.407 194.409 124.94 196.979L128.01 198.229C128.692 198.507 130.563 199.577 132.589 201.633C135.122 204.203 134.636 202.466 136.683 203.3C138.73 204.133 140.291 203.23 141.365 200.59C142.44 197.95 147.277 186.072 144.745 183.502C142.212 180.932 137.581 180.585 136.558 180.168C135.739 179.835 130.007 181.604 127.244 182.53C122.076 183.502 121.539 184.822 119.389 190.103Z" fill="black"/>
</svg>
